# xmcd
#
# Track frame offsets:
#	165
#	12819
#	28859
#	51520
#	69419
#	81674
#	92888
#	109723
#	126876
#	141229
#	156719
#	169585
#	181382
#	194590
#	209499
# Disc length: 2957 seconds
# Revision: 1
# Processed by: cddbd v1.5.1PL0 Copyright (c) Steve Scherf et al.
#
# Submitted via: libkcddb 0.10
#
DISCID=e40b8b0f
DTITLE=kolektiv - country kolotoč 7
DYEAR=1900
DGENRE=Unknown
TTITLE0=Hloupej dává
TTITLE1=Rákosí
TTITLE2=Krvavá Marie
TTITLE3=Jednou Tě najdou
TTITLE4=Bitva o New Orleans
TTITLE5=Tak čau
TTITLE6=S písní lesů, vod a strání
TTITLE7=Měsíc plave v řece
TTITLE8=Nebeská brána
TTITLE9=Lásky nebude nikdy dost
TTITLE10=Vyznání
TTITLE11=Chodím jen tak bosý
TTITLE12=Léto jak má být
TTITLE13=Na venkovském nádraží
TTITLE14=Náruč tvá
EXTD=by Oblomov
EXTT0=Michal - Pavel Vrba
EXTT1=traditional /Petra Černocká
EXTT2=Robert Křesťan
EXTT3=Pavel Krejča /Eduard Krejčar
EXTT4=traditional - Vladimír Poštulka
EXTT5=Stanislav Chmelík
EXTT6=Zdeněk Merta - Jaroslav Navrátil
EXTT7=Karel vágner - Petr Rada
EXTT8=Jindra Šťáhlavský
EXTT9=Stanislav Chmelík - Mirek Černý
EXTT10=Jiří Barda - Alice Chrtková
EXTT11=Karel Kahovec
EXTT12=Stanislav chmelík
EXTT13=Pavel Skalický - Vladimír Poštulka
EXTT14=Red Lane - Bezi Ltd.
PLAYORDER=
